v -38.834549 -19.019356 66.908409 0.000000 0.600000 0.070588
v -16.554127 -69.255852 60.977936 0.156863 0.501961 0.549020
v -9.553576 -8.218807 46.251862 0.549020 0.662745 0.207843
v -23.755947 41.976662 24.649857 0.537255 0.498039 0.549020
v -60.119377 0.131351 9.204027 0.560784 0.623529 0.180392
v -50.369820 -48.500275 47.946831 0.513725 0.431373 0.427451
v -36.782997 -87.543190 -0.980254 0.090196 0.164706 0.921569
v -20.224998 -62.329872 6.908006 0.266667 0.309804 0.631373
v -1.676775 9.333529 -4.029366 1.000000 0.960784 0.949020
v -28.735180 23.722635 -6.297582 0.552941 0.231373 0.329412
v -54.017925 -24.491703 -6.139310 0.294118 0.211765 0.129412
v -35.112019 -24.750549 -25.246220 0.266667 0.274510 0.215686
v -54.968189 -8.209369 38.579960 0.129412 0.803922 0.160784
v -38.459175 22.735081 24.533545 0.533333 0.552941 0.529412
v -30.142481 10.595556 56.340649 0.392157 0.384314 0.333333
v -49.201927 -28.860157 53.224220 0.129412 0.803922 0.160784
v -59.966351 -25.013794 28.201639 0.717647 0.776471 0.564706
v -21.771652 -35.490829 70.654808 0.129412 0.803922 0.160784
v -28.706177 -51.363464 40.162739 0.662745 0.741176 0.800000
v -13.857485 -11.428417 71.010056 0.325490 0.807843 0.192157
v -15.250265 -44.260601 54.576599 0.639216 0.623529 0.568627
v -3.433147 34.760216 51.931252 0.400000 0.345098 0.329412
v -10.076988 52.344421 3.327262 0.368627 0.090196 0.192157
v -2.473145 16.168140 24.524197 1.000000 0.960784 0.949020
v -41.024101 51.990612 -2.532902 0.309804 0.313725 0.258824
v -12.623372 26.418808 -24.478134 0.176471 0.172549 0.113725
v -35.715981 15.571591 7.095279 0.705882 0.584314 0.537255
v -34.191456 -30.712702 17.196230 0.662745 0.211765 0.137255
v -46.469559 -10.661004 -8.460791 0.501961 0.196078 0.027451
v -64.595291 -49.226082 15.074936 0.619608 0.400000 0.282353
v -43.120659 -66.507309 27.962427 0.223529 0.258824 0.192157
v -61.400787 -58.404408 -3.142787 0.858824 1.000000 0.882353
v -25.257374 -79.539375 17.358143 0.172549 0.215686 0.870588
v -12.011393 -68.927460 33.454079 0.756863 0.349020 0.690196
v -11.896334 -91.317375 2.784436 0.247059 0.019608 1.000000
v -1.157686 -33.174019 29.549805 0.647059 0.282353 0.462745
v -6.747331 -30.630255 9.453132 1.000000 0.960784 0.949020
v -23.674768 8.458643 -32.272594 0.141176 0.113725 0.090196
v -34.870033 -26.384634 -11.694664 1.000000 0.960784 0.949020
v -55.841949 -20.224247 -27.426596 0.278431 0.262745 0.227451
v -44.472546 -65.302002 -21.605703 0.262745 0.329412 0.380392
v -19.245758 -56.957874 -9.127146 0.266667 0.309804 0.631373
v -41.898525 -13.715841 49.125454 0.129412 0.803922 0.160784
v -43.288746 5.078854 48.418648 0.266667 0.313725 0.231373
v -29.544037 -7.581069 46.825043 0.533333 0.552941 0.529412
v -38.250530 -26.340734 49.788197 0.129412 0.803922 0.160784
v -41.615936 -21.355824 39.142323 0.129412 0.803922 0.160784
v -22.731136 -28.798914 53.848015 0.164706 0.905882 0.098039
v -37.272331 -35.033333 66.339516 0.129412 0.803922 0.160784
v -23.528509 -14.966647 65.677780 0.325490 0.807843 0.192157
v -12.564888 -30.846100 66.394196 0.129412 0.803922 0.160784
v -21.515888 0.633329 55.371716 0.482353 0.682353 0.611765
v -15.816477 62.095478 15.629219 0.141176 0.113725 0.090196
v -5.688671 49.506096 26.335037 0.180392 0.121569 0.070588
v -17.278183 47.698502 41.015373 0.176471 0.172549 0.113725
v -30.130611 48.218304 11.693718 0.537255 0.498039 0.549020
v -19.266354 59.886864 -5.995881 0.325490 0.278431 0.278431
v -39.568890 38.031715 32.058434 0.792157 0.823529 0.701961
v -36.065434 35.657127 12.150660 0.701961 0.756863 0.682353
v -46.059059 -14.152608 15.295047 0.560784 0.623529 0.180392
v -36.716789 -10.570656 14.619492 0.313725 0.447059 0.239216
v -49.019329 6.918002 -2.050940 0.705882 0.584314 0.537255
v -65.663078 -16.549953 18.307274 0.549020 0.662745 0.207843
v -48.311676 -27.454601 15.997923 0.737255 0.647059 0.262745
v -52.811634 -63.197472 36.701607 0.513725 0.431373 0.427451
v -43.990993 -55.441357 20.554449 0.223529 0.258824 0.192157
v -56.990704 -53.094902 31.060160 0.513725 0.431373 0.427451
v -38.500195 -50.096977 36.657001 0.713725 0.596078 0.666667
v -37.912590 -67.339355 49.178520 0.513725 0.431373 0.427451
v -5.913734 -74.672012 47.128231 0.615686 0.752941 0.737255
v -16.155090 -88.315918 38.198280 0.070588 0.400000 0.650980
v -20.626547 -68.139267 38.483284 0.290196 0.450980 0.596078
v -7.425181 -56.614380 60.761639 0.717647 1.000000 0.921569
v -7.750725 -55.284019 44.323162 0.537255 0.498039 0.549020
v -6.500800 6.812588 38.641731 0.698039 0.517647 0.478431
v -3.211910 -10.105825 31.247513 1.000000 0.960784 0.949020
v -7.294929 -18.910433 42.049263 0.815686 0.686275 0.768627
v -2.091126 21.212372 -21.717878 0.176471 0.172549 0.113725
v -14.615305 -4.131710 -12.794278 1.000000 0.960784 0.949020
v -5.641984 -16.865200 -20.148769 1.000000 0.960784 0.949020
v -39.848431 -3.732686 -5.752017 0.447059 0.447059 0.313725
v -42.451714 11.082695 -21.148846 0.141176 0.113725 0.090196
v -36.150867 5.521148 -18.023062 0.333333 0.176471 0.164706
v -53.719147 -38.766758 -4.865104 0.298039 0.227451 0.215686
v -60.642841 -39.645176 -16.621073 0.392157 0.384314 0.333333
v -59.530434 -19.588451 -12.425695 0.035294 0.058824 0.000000
v -21.210911 -102.186203 -7.753510 0.247059 0.019608 1.000000
v -19.354599 -87.941231 -8.953952 0.090196 0.164706 0.921569
v -44.580284 -82.371971 -15.471906 0.266667 0.309804 0.631373
v -6.000800 -46.558277 4.862864 1.000000 0.960784 0.949020
v -12.565356 -39.340126 -1.214850 0.349020 0.254902 0.380392
v -16.433292 -62.959522 2.055828 0.247059 0.019608 1.000000
v -61.572430 1.233920 27.187046 0.325490 0.807843 0.192157
v -44.508614 6.406948 20.260197 0.705882 0.839216 0.654902
v -37.585651 2.237385 30.890087 0.545098 0.619608 0.545098
v -41.284966 23.332600 41.256523 0.400000 0.345098 0.329412
v -24.855698 26.790930 35.859371 0.247059 0.243137 0.176471
v -39.493378 -34.326324 37.594006 0.572549 0.952941 0.619608
v -58.690960 -32.805359 42.959919 1.000000 1.000000 0.886275
v -50.261311 -25.393997 37.358471 0.243137 0.827451 0.243137
v -55.073570 -10.845823 32.230930 0.129412 0.803922 0.160784
v -20.675888 -51.133461 60.405750 0.482353 0.682353 0.611765
v -26.121765 -59.087898 52.970325 0.290196 0.450980 0.596078
v -32.542778 -45.643768 59.299072 0.325490 0.784314 0.325490
v -32.514885 -40.191578 44.395554 0.572549 0.952941 0.619608
v -6.547942 -10.910381 57.989220 0.447059 0.466667 0.368627
v -12.085365 -28.255650 44.417397 0.639216 0.623529 0.568627
v -3.467479 -28.013836 60.840096 0.129412 0.803922 0.160784
v -13.132878 -43.159393 73.244186 0.313725 0.447059 0.239216
v -25.866537 25.491861 51.981182 0.325490 0.364706 0.282353
v -12.074118 11.927996 64.846954 0.172549 0.196078 0.101961
v -7.313207 11.838595 49.616508 0.447059 0.466667 0.368627
v -2.516820 38.415157 -8.547678 0.341176 0.058824 0.125490
v -0.037138 18.276768 9.028701 1.000000 0.960784 0.949020
v -4.738959 40.726433 15.334859 0.482353 0.160784 0.262745
v -9.474477 23.758997 31.883343 0.552941 0.231373 0.329412
v -46.650402 32.900764 -16.999411 0.192157 0.176471 0.121569
v -30.757183 23.973604 -23.936075 0.313725 0.266667 0.247059
v -24.899664 42.209724 -13.216606 0.482353 0.431373 0.447059
v -1.365098 48.392681 -23.814604 0.070588 0.176471 0.070588
v -56.582500 22.111294 18.149971 0.392157 0.384314 0.333333
v -51.075451 29.032776 -2.603821 0.247059 0.243137 0.176471
v -30.194565 25.317997 6.393514 0.662745 0.415686 0.466667
v -53.056847 -23.591434 2.315306 0.772549 0.196078 0.019608
v -62.669525 -7.923790 -2.992438 0.501961 0.196078 0.027451
v -39.776047 -23.867767 1.668861 0.764706 0.203922 0.039216
v -40.483559 -5.759608 7.412128 0.639216 0.509804 0.415686
v -52.303505 -41.258369 28.378378 1.000000 1.000000 0.886275
v -47.675690 -37.373817 13.266027 0.662745 0.211765 0.137255
v -64.484230 -35.817158 3.100495 0.501961 0.196078 0.027451
v -46.415974 -77.010803 15.158501 0.266667 0.309804 0.631373
v -41.444458 -68.631729 0.541480 0.156863 0.435294 0.529412
v -46.330742 -64.521568 11.816401 0.639216 0.623529 0.568627
v -49.820858 -48.942295 6.559274 0.462745 0.333333 0.290196
v -26.222019 -65.680771 37.653118 0.486275 0.517647 0.478431
v -36.296135 -85.133789 28.986721 0.662745 0.741176 0.800000
v -31.675425 -93.344521 9.502344 0.090196 0.164706 0.921569
v -19.341652 -63.446251 21.058022 0.349020 0.254902 0.380392
v -13.593898 -77.815193 9.605763 0.247059 0.019608 1.000000
v -2.709948 -74.833656 22.162247 0.090196 0.164706 0.921569
v -11.693882 -98.134033 15.721949 0.090196 0.164706 0.921569
v -10.030189 -37.393520 44.767227 0.815686 0.686275 0.768627
v -10.495581 -54.486183 30.294392 0.258824 0.129412 0.137255
v -2.186376 -51.352345 17.971125 0.129412 0.019608 0.039216
v -1.992836 -14.691584 -0.633124 1.000000 0.960784 0.949020
v 0.374676 -8.629421 15.678160 1.000000 0.960784 0.949020
v 0.915289 -35.980408 22.253250 1.000000 0.960784 0.949020
v -24.340763 2.813168 -14.315956 1.000000 0.960784 0.949020
v -33.551643 -13.151680 -23.532896 0.247059 0.203922 0.176471
v -30.734135 -6.594125 -36.184250 0.231373 0.258824 0.211765
v -20.870275 -20.464218 -20.733999 0.349020 0.254902 0.380392
v -51.742714 -2.652682 -23.456255 0.141176 0.113725 0.090196
v -42.793728 0.299908 -40.166222 0.192157 0.215686 0.141176
v -42.991596 -20.242014 -30.788696 0.266667 0.274510 0.215686
v -46.893837 -59.823860 -9.738162 0.274510 0.521569 0.654902
v -47.906555 -43.632252 -26.041285 0.376471 0.517647 0.494118
v -34.970722 -45.320129 -24.686016 0.262745 0.329412 0.380392
v -5.727883 -79.116379 -3.543268 0.090196 0.164706 0.921569
v -28.042202 -65.178261 -7.306872 0.090196 0.164706 0.921569
v -34.180923 -40.853649 -12.004324 0.447059 0.458824 0.450980
v -18.649462 -32.176758 -5.850329 1.000000 0.960784 0.949020
v -25.942215 -32.482300 -9.917422 0.349020 0.254902 0.380392
v -41.698872 -13.518034 57.000847 0.129412 0.803922 0.160784
v -40.119011 -5.307348 51.630077 0.533333 0.552941 0.529412
v -34.432617 -8.931433 58.390362 0.000000 0.600000 0.070588
v -36.584171 -25.940884 51.085865 0.129412 0.803922 0.160784
v -34.170380 -19.329937 46.436565 0.129412 0.803922 0.160784
v -28.602692 -25.639318 57.020241 0.129412 0.803922 0.160784
v -30.103973 -28.734406 50.982449 0.164706 0.905882 0.098039
v -32.305073 -14.460126 70.226608 0.000000 0.600000 0.070588
v -24.789307 -24.946720 64.641708 0.129412 0.803922 0.160784
v -26.828327 -11.102457 54.574207 0.482353 0.682353 0.611765
v -24.869551 56.185577 24.366110 0.207843 0.192157 0.180392
v -14.887018 54.776653 26.767879 0.207843 0.192157 0.180392
v -24.006090 47.177227 35.415634 0.176471 0.172549 0.113725
v -27.144526 46.874458 18.713406 0.537255 0.498039 0.549020
v -26.176245 55.001404 11.357323 0.325490 0.278431 0.278431
v -28.853815 36.134811 24.437075 0.537255 0.498039 0.549020
v -36.103195 46.110912 22.528452 0.537255 0.498039 0.549020
v -53.664970 -8.522663 6.711877 0.549020 0.662745 0.207843
v -46.171627 -5.026831 5.899404 0.560784 0.623529 0.180392
v -58.165306 4.024814 1.211382 0.666667 0.631373 0.419608
v -64.117188 -8.757208 8.874668 0.549020 0.662745 0.207843
v -55.699158 -16.544167 11.360034 0.549020 0.662745 0.207843
v -52.025330 -54.770142 42.639843 0.513725 0.431373 0.427451
v -49.596951 -54.408985 31.642315 0.513725 0.431373 0.427451
v -53.239799 -49.778488 39.119152 0.513725 0.431373 0.427451
v -43.594425 -49.779343 42.087154 0.513725 0.431373 0.427451
v -46.463676 -57.562599 43.450569 0.513725 0.431373 0.427451
v -10.033701 -72.478722 54.413219 0.686275 1.000000 0.960784
v -15.942404 -75.794174 46.905617 0.686275 1.000000 0.960784
v -16.681553 -67.157219 48.553886 0.466667 0.800000 0.776471
v -12.502051 -60.551922 61.848278 0.717647 1.000000 0.921569
v -7.364573 -62.020588 55.093159 0.717647 1.000000 0.921569
v -9.446831 -0.927106 42.057522 0.549020 0.662745 0.207843
v -4.644656 -6.031246 43.208496 0.533333 0.545098 0.376471
v -11.203108 -13.099086 42.249706 0.325490 0.807843 0.192157
v -3.454762 16.590937 -10.411074 0.129412 0.094118 0.058824
v -3.963122 -0.031422 -13.943321 1.000000 0.960784 0.949020
v -1.737422 -6.816220 -10.916413 1.000000 0.960784 0.949020
v -39.210213 14.297195 -2.686810 0.639216 0.509804 0.415686
v -40.882240 2.193135 -10.570345 0.447059 0.447059 0.313725
v -33.237576 16.888058 -10.820818 0.333333 0.176471 0.164706
v -48.665791 -32.001736 -5.785181 0.298039 0.227451 0.215686
v -55.545521 -29.293482 -9.289996 0.298039 0.227451 0.215686
v -50.688812 -22.993679 -10.351334 0.141176 0.113725 0.090196
v -29.926823 -95.761353 -4.427309 0.090196 0.164706 0.921569
v -30.640339 -94.764435 -16.504530 0.090196 0.164706 0.921569
v -41.096176 -89.088165 -8.605035 0.090196 0.164706 0.921569
v -14.347043 -56.693645 6.264488 0.349020 0.254902 0.380392
v -20.654781 -55.397392 1.993007 0.266667 0.309804 0.631373
v -24.892572 -64.449448 3.413956 0.247059 0.019608 1.000000
v -59.597645 -2.279135 34.485722 0.129412 0.803922 0.160784
v -48.701653 4.428272 30.821936 0.705882 0.839216 0.654902
v -47.792900 -0.028820 35.942726 0.533333 0.650980 0.596078
v -39.036888 4.827316 58.176292 0.392157 0.384314 0.333333
v -45.056187 13.263140 46.299248 0.207843 0.192157 0.180392
v -36.230732 21.334805 52.530407 0.207843 0.192157 0.180392
v -32.060692 28.290985 43.690121 0.207843 0.192157 0.180392
v -28.223648 17.203161 43.331295 0.247059 0.243137 0.176471
v -41.319374 -31.018702 41.084743 0.243137 0.827451 0.243137
v -44.115257 -29.009653 36.204758 0.494118 1.000000 0.556863
v -50.155815 -26.781485 46.130249 0.243137 0.827451 0.243137
v -41.116127 -15.227780 33.975372 0.129412 0.803922 0.160784
v -47.367645 -16.916113 35.047798 0.129412 0.803922 0.160784
v -46.486393 -10.165266 28.249130 0.164706 0.905882 0.098039
v -51.693615 -8.567953 23.171818 0.164706 0.905882 0.098039
v -22.104528 -43.327351 62.385010 0.243137 0.827451 0.243137
v -27.300877 -47.924114 63.163979 0.325490 0.784314 0.325490
v -23.394028 -40.401318 56.412788 0.243137 0.827451 0.243137
v -45.331257 -32.830303 59.715363 0.129412 0.803922 0.160784
v -36.849648 -37.988525 54.245697 0.243137 0.827451 0.243137
v -38.719978 -35.219223 45.463573 0.243137 0.827451 0.243137
v -33.917526 -36.644711 38.979176 0.572549 0.952941 0.619608
v -7.379019 -8.829146 65.828873 0.325490 0.807843 0.192157
v -4.751584 -20.715340 61.819099 0.129412 0.803922 0.160784
v -3.466846 -17.358135 71.621925 0.129412 0.803922 0.160784
v -14.474217 -33.865288 65.566437 0.129412 0.803922 0.160784
v -5.630393 -38.262215 72.149094 0.129412 0.803922 0.160784
v -16.353815 -37.592155 76.139572 0.313725 0.447059 0.239216
v -19.533169 -48.681149 70.713158 0.482353 0.682353 0.611765
v -22.547413 23.258406 39.445164 0.247059 0.243137 0.176471
v -26.051525 14.033206 45.548103 0.392157 0.384314 0.333333
v -21.722095 -5.911720 65.672676 0.482353 0.682353 0.611765
v -22.280172 8.696882 65.494179 0.545098 0.619608 0.545098
v -13.386019 -0.226328 72.285378 0.545098 0.619608 0.545098
v -4.485175 -0.636457 67.760681 0.447059 0.466667 0.368627
v -11.203625 45.053684 -2.082439 0.368627 0.090196 0.192157
v -2.746219 40.858440 3.089238 0.341176 0.058824 0.125490
v -9.510283 43.948261 7.436435 0.180392 0.121569 0.070588
v -3.688329 43.133251 37.317398 0.400000 0.345098 0.329412
v -4.279174 36.004143 27.977345 0.329412 0.188235 0.192157
v -4.656877 29.108404 39.288406 0.400000 0.345098 0.329412
v -8.016144 16.873981 40.615471 0.639216 0.603922 0.482353
v -4.413784 21.574444 50.206177 0.400000 0.345098 0.329412
v -45.514301 45.894913 -13.356619 0.309804 0.313725 0.258824
v -33.819183 37.474892 -11.064569 0.309804 0.313725 0.258824
v -34.444229 50.936180 -14.226664 0.309804 0.313725 0.258824
v -5.524503 67.858360 -1.547194 0.141176 0.113725 0.090196
v -5.490706 63.377674 -17.821148 0.231373 0.258824 0.211765
v -3.707410 51.086494 -7.912950 0.125490 0.058824 0.003922
v -8.857491 41.397392 -10.931071 0.125490 0.058824 0.003922
v -38.196465 14.696413 25.198118 0.447059 0.466667 0.368627
v -50.763050 12.551488 23.914759 0.447059 0.466667 0.368627
v -43.358234 21.118191 22.055119 0.392157 0.384314 0.333333
v -41.847363 44.518898 4.672975 0.603922 0.450980 0.478431
v -45.924995 36.778484 6.723712 0.701961 0.756863 0.682353
v -44.467495 38.588417 -3.232377 0.494118 0.498039 0.443137
v -49.445808 32.887100 -8.482307 0.192157 0.176471 0.121569
v -43.412300 -31.486897 8.397911 0.956863 0.086275 0.129412
v -50.098183 -23.238043 8.803881 0.956863 0.086275 0.129412
v -35.841240 -25.791523 11.029390 0.764706 0.203922 0.039216
v -36.878666 1.953049 11.659002 0.639216 0.509804 0.415686
v -36.583008 -8.437678 12.037271 0.313725 0.447059 0.239216
v -33.753685 7.851242 10.779413 0.639216 0.509804 0.415686
v -32.368721 11.680718 8.652234 0.639216 0.509804 0.415686
v -32.574799 20.538685 9.942152 0.705882 0.584314 0.537255
v -62.134300 -28.252106 34.734760 1.000000 1.000000 0.886275
v -59.528656 -38.119907 33.987122 1.000000 1.000000 0.886275
v -63.679371 -34.771259 26.335957 1.000000 1.000000 0.886275
v -39.247326 -29.837215 19.324488 0.662745 0.211765 0.137255
v -42.120045 -37.324776 18.125082 0.662745 0.211765 0.137255
v -39.488823 -35.758827 11.745303 0.662745 0.211765 0.137255
v -48.330242 -30.842951 6.772510 0.772549 0.196078 0.019608
v -43.839916 -71.108841 21.202061 0.231373 0.258824 0.211765
v -43.202919 -69.158173 12.563681 0.486275 0.517647 0.572549
v -43.330223 -64.234116 18.175356 0.223529 0.258824 0.192157
v -53.067375 -54.785774 16.716038 0.223529 0.258824 0.192157
v -44.398380 -51.579273 12.993370 0.462745 0.333333 0.290196
v -54.000374 -47.791443 9.465893 0.462745 0.333333 0.290196
v -53.015160 -41.671326 3.619175 0.462745 0.333333 0.290196
v -66.487915 -42.253868 9.223471 0.619608 0.400000 0.282353
v -28.208481 -55.235424 47.894356 0.290196 0.450980 0.596078
v -28.071152 -62.526421 46.370510 0.662745 0.741176 0.800000
v -29.637573 -58.321827 41.739452 0.662745 0.741176 0.800000
v -41.968025 -70.391327 38.174866 0.231373 0.258824 0.211765
v -33.574188 -79.984451 41.511349 0.231373 0.258824 0.211765
v -44.657551 -76.429825 30.721027 0.231373 0.258824 0.211765
v -44.964973 -80.275955 22.578333 0.662745 0.741176 0.800000
v -16.043722 -65.145721 27.211018 0.756863 0.349020 0.690196
v -15.424756 -71.786888 18.327360 0.266667 0.309804 0.631373
v -14.741537 -75.314339 23.707087 0.266667 0.309804 0.631373
v -22.782804 -87.672501 25.279200 0.172549 0.215686 0.870588
v -11.375860 -91.869385 29.616684 0.027451 0.231373 1.000000
v -18.269154 -91.531059 18.528223 0.027451 0.231373 1.000000
v -23.495062 -98.796165 15.810690 0.090196 0.164706 0.921569
v -26.272831 -85.830879 14.384344 0.090196 0.164706 0.921569
v -14.668795 -37.608406 48.527931 0.639216 0.623529 0.568627
v -16.882757 -34.295311 41.015278 0.815686 0.686275 0.768627
v -14.870687 -42.075558 47.259895 0.815686 0.686275 0.768627
v -4.369664 -63.846447 39.221756 0.203922 0.176471 0.156863
v -7.711354 -54.058922 35.641430 0.258824 0.129412 0.137255
v -1.485742 -66.395576 30.184031 0.203922 0.176471 0.156863
v -3.263179 -67.333191 22.133396 0.203922 0.176471 0.156863
v 1.404238 18.346237 17.508001 1.000000 0.960784 0.949020
v 0.200319 4.266625 13.549082 1.000000 0.960784 0.949020
v 0.762092 4.761743 21.667162 1.000000 0.960784 0.949020
v -3.611782 -22.639156 29.602261 0.647059 0.282353 0.462745
v -2.165603 -23.011648 27.941044 1.000000 0.960784 0.949020
v -5.622656 -34.548443 27.294788 1.000000 0.960784 0.949020
v -4.515526 -43.968250 21.684269 1.000000 0.960784 0.949020
v -1.936609 -42.557198 26.378382 0.274510 0.054902 0.211765
v -21.753708 25.259686 -18.660437 0.313725 0.266667 0.247059
v -23.846256 12.977910 -25.669933 0.329412 0.188235 0.192157
v -14.976686 12.571262 -24.290035 0.176471 0.172549 0.113725
v -21.634827 -16.947443 -12.464228 1.000000 0.960784 0.949020
v -27.810871 -13.571787 -13.805676 1.000000 0.960784 0.949020
v -37.312057 -20.144215 -17.401854 1.000000 0.960784 0.949020
v -27.451420 -16.306282 -22.285069 0.247059 0.203922 0.176471
v -35.822632 -26.010181 -16.323505 0.247059 0.203922 0.176471
v -56.410248 -1.502754 -0.946787 0.501961 0.196078 0.027451
v -54.767891 -6.120186 -14.987010 0.294118 0.211765 0.129412
v -57.969524 6.943349 -10.100685 0.501961 0.196078 0.027451
v -34.673389 14.646002 -29.840939 0.141176 0.113725 0.090196
v -44.060280 13.391479 -37.385826 0.141176 0.113725 0.090196
v -31.917973 10.239894 -42.204700 0.141176 0.113725 0.090196
v -32.485020 -3.191625 -46.260571 0.192157 0.215686 0.141176
v -23.810955 1.195948 -43.496124 0.231373 0.258824 0.211765
v -50.758633 -63.758797 -0.734457 0.384314 0.537255 0.580392
v -48.588074 -66.326393 -6.146828 0.384314 0.537255 0.580392
v -55.991650 -59.535450 -8.106503 0.858824 1.000000 0.882353
v -56.348900 -28.979614 -19.724144 0.203922 0.176471 0.156863
v -56.741383 -41.854782 -22.127167 0.392157 0.384314 0.333333
v -57.844616 -32.785721 -29.472599 0.278431 0.262745 0.227451
v -47.676132 -31.913101 -28.424290 0.376471 0.517647 0.494118
v -55.003803 -21.231159 -36.105125 0.278431 0.262745 0.227451
v -11.248656 -84.895752 8.030279 0.247059 0.019608 1.000000
v -7.005854 -80.596794 5.425912 0.247059 0.019608 1.000000
v -4.183866 -89.633614 -1.356457 0.247059 0.019608 1.000000
v -29.901865 -78.415878 -12.543765 0.090196 0.164706 0.921569
v -22.727192 -78.400749 -7.400152 0.090196 0.164706 0.921569
v -27.898563 -68.047134 -14.708908 0.172549 0.215686 0.870588
v -25.051077 -57.853981 -15.279742 0.262745 0.329412 0.380392
v -38.188164 -54.235535 -22.873640 0.262745 0.329412 0.380392
v -3.153822 -23.745106 3.982368 1.000000 0.960784 0.949020
v -6.970857 -25.394997 -4.915845 1.000000 0.960784 0.949020
v -10.397511 -33.124023 -1.121298 1.000000 0.960784 0.949020
v -14.132869 -46.474281 -8.110563 0.090196 0.164706 0.921569
v -21.758617 -36.841503 -4.652918 0.349020 0.254902 0.380392
v -20.144882 -42.407612 -13.140425 0.239216 0.243137 0.266667
v -24.002190 -38.269344 -17.362837 0.239216 0.243137 0.266667
v -28.548697 -47.990013 -7.031354 0.266667 0.309804 0.631373
v -49.262112 -12.387556 43.980385 0.129412 0.803922 0.160784
v -52.033264 1.874007 44.958778 0.266667 0.313725 0.231373
v -47.564869 -4.414515 49.371353 0.533333 0.552941 0.529412
v -36.665031 -2.700625 46.059906 0.533333 0.552941 0.529412
v -28.531805 -0.890004 50.169762 0.482353 0.682353 0.611765
v -45.491493 -20.623550 60.811035 0.129412 0.803922 0.160784
v -49.645191 -15.934183 53.925121 0.129412 0.803922 0.160784
v -38.012924 -20.774384 45.634697 0.129412 0.803922 0.160784
v -35.584209 -18.038700 39.406300 0.129412 0.803922 0.160784
v -22.502956 -30.238781 65.739197 0.129412 0.803922 0.160784
v -28.670269 -34.705078 67.469559 0.129412 0.803922 0.160784
v -31.029205 -28.876043 62.986046 0.129412 0.803922 0.160784
v -39.192963 -27.334942 62.482441 0.129412 0.803922 0.160784
v -16.780378 -14.979528 64.409584 0.325490 0.807843 0.192157
v -13.137387 -18.575535 75.165817 0.325490 0.807843 0.192157
v -20.729666 -22.237469 74.454987 0.129412 0.803922 0.160784
v -16.652813 -30.096020 58.304882 0.164706 0.905882 0.098039
v -23.409861 5.256109 50.409645 0.482353 0.682353 0.611765
v -23.176327 -4.805077 48.837780 0.482353 0.682353 0.611765
v -21.946632 -10.620776 58.042778 0.482353 0.682353 0.611765
v -5.764633 64.919426 10.282178 0.141176 0.113725 0.090196
v -6.212058 52.894604 14.269430 0.180392 0.121569 0.070588
v -5.618528 63.019123 23.146444 0.141176 0.113725 0.090196
v -6.966540 56.143127 37.988945 0.180392 0.121569 0.070588
v -9.907860 45.105309 48.701550 0.141176 0.113725 0.090196
v -34.183556 53.815102 6.031985 0.603922 0.450980 0.478431
v -28.701939 53.624615 -3.550588 0.415686 0.305882 0.349020
v -25.090477 51.779987 2.059901 0.325490 0.278431 0.278431
v -19.263142 64.737679 4.534202 0.325490 0.278431 0.278431
v -47.126385 31.031809 27.261429 0.533333 0.552941 0.529412
v -44.379395 30.263300 20.376793 0.533333 0.552941 0.529412
v -43.907047 38.402290 20.013611 0.792157 0.823529 0.701961
v -40.223141 46.229073 13.929683 0.603922 0.450980 0.478431
v -37.332798 -23.909473 16.809530 0.560784 0.623529 0.180392
v -34.923893 -22.922619 16.501516 0.560784 0.623529 0.180392
v -40.335499 -12.818268 16.811239 0.560784 0.623529 0.180392
v -42.308327 -1.626015 11.534714 0.549020 0.662745 0.207843
v -41.147663 9.775294 2.484914 0.705882 0.584314 0.537255
v -61.719788 -20.745808 24.958235 0.717647 0.776471 0.564706
v -61.073700 -26.832434 16.073141 0.717647 0.776471 0.564706
v -54.272438 -21.055256 19.428116 0.737255 0.647059 0.262745
v -45.770973 -22.784231 16.525661 0.560784 0.623529 0.180392
v -41.899021 -64.174019 32.920116 0.231373 0.258824 0.211765
v -39.346172 -59.658806 24.986576 0.223529 0.258824 0.192157
v -47.509560 -61.210491 27.226496 0.223529 0.258824 0.192157
v -52.934334 -56.043377 24.912880 0.513725 0.431373 0.427451
v -60.859978 -53.498535 21.634876 0.470588 0.294118 0.243137
v -32.884876 -50.092785 34.946583 0.662745 0.741176 0.800000
v -33.967022 -57.349121 38.801315 0.713725 0.596078 0.666667
v -39.426880 -57.115246 41.113491 0.513725 0.431373 0.427451
v -45.413918 -66.803123 45.147118 0.513725 0.431373 0.427451
v -6.927836 -74.085197 38.576698 0.756863 0.349020 0.690196
v -16.641186 -77.424767 32.908592 0.419608 0.419608 0.600000
v -16.170076 -78.318443 42.234356 0.419608 0.419608 0.600000
v -22.817266 -80.269554 38.708260 0.290196 0.450980 0.596078
v -25.584568 -72.041153 27.150555 0.290196 0.450980 0.596078
v -5.903342 -47.870766 59.803539 0.717647 1.000000 0.921569
v -5.074774 -48.185532 50.611080 0.537255 0.498039 0.549020
v -5.392769 -56.124153 51.955486 0.537255 0.498039 0.549020
v -5.969148 -62.195171 46.964142 0.615686 0.752941 0.737255
v -1.745062 12.864525 31.756962 0.533333 0.419608 0.411765
v -2.515003 3.296495 29.964542 1.000000 0.960784 0.949020
v -1.745508 -0.444771 34.069572 0.533333 0.419608 0.411765
v -0.904994 -13.783673 36.306770 0.552941 0.231373 0.329412
v -1.807718 -25.893625 38.494385 0.552941 0.231373 0.329412
v -9.492131 26.546070 -22.151087 0.176471 0.172549 0.113725
v -12.956220 14.293564 -16.351971 0.329412 0.188235 0.192157
v -6.515617 8.980051 -18.864267 1.000000 0.960784 0.949020
v -10.474604 -9.337863 -14.603699 1.000000 0.960784 0.949020
v -17.382641 -22.586067 -16.173368 1.000000 0.960784 0.949020
v -40.620106 -12.274332 -10.473969 0.635294 0.458824 0.325490
v -46.868904 0.441878 -14.130298 0.501961 0.196078 0.027451
v -41.767010 -5.990060 -16.230541 0.635294 0.458824 0.325490
v -39.962086 1.425523 -20.619076 0.431373 0.176471 0.223529
v -32.918415 3.394147 -22.629436 0.141176 0.113725 0.090196
v -65.369743 -44.992027 -0.254679 0.392157 0.384314 0.333333
v -60.947014 -48.039330 -9.843337 0.392157 0.384314 0.333333
v -65.521568 -37.543034 -8.493147 0.392157 0.384314 0.333333
v -68.384720 -27.819386 -14.523996 0.203922 0.176471 0.156863
v -65.407280 -17.121302 -21.374592 0.035294 0.058824 0.000000
v -14.204181 -97.563194 -3.273065 0.247059 0.019608 1.000000
v -7.670871 -95.910896 -10.809183 0.247059 0.019608 1.000000
v -16.175211 -96.720840 -16.780170 0.247059 0.019608 1.000000
v -28.460190 -85.572968 -18.954815 0.090196 0.164706 0.921569
v -41.641479 -75.336502 -16.810574 0.262745 0.329412 0.380392
v -4.957587 -37.546562 4.678515 1.000000 0.960784 0.949020
v -14.142453 -37.685173 2.819037 1.000000 0.960784 0.949020
v -8.724344 -43.952232 0.736183 0.647059 0.282353 0.462745
v -18.955893 -51.762627 -2.788976 0.266667 0.309804 0.631373
v -8.272691 -57.846626 -2.622028 0.090196 0.164706 0.921569
v -62.546356 1.546430 18.538330 0.129412 0.803922 0.160784
v -53.022236 5.596123 14.327135 0.705882 0.839216 0.654902
v -51.623901 6.024484 22.715841 0.705882 0.839216 0.654902
v -38.774300 4.682951 25.238789 0.545098 0.619608 0.545098
v -35.555019 12.349602 28.205967 0.447059 0.466667 0.368627
v -38.600750 4.554924 37.993317 0.400000 0.345098 0.329412
v -40.218468 12.742624 34.705597 0.400000 0.345098 0.329412
v -47.034782 21.829044 32.530453 0.400000 0.345098 0.329412
v -39.756935 29.942011 35.456154 0.533333 0.552941 0.529412
v -31.043879 35.000057 35.607979 0.792157 0.823529 0.701961
v -26.805304 37.629238 34.451939 0.537255 0.498039 0.549020
v -44.792015 -41.288177 42.908134 0.572549 0.952941 0.619608
v -54.600136 -40.677193 49.297340 1.000000 1.000000 0.886275
v -47.868813 -35.000500 40.628906 0.494118 1.000000 0.556863
v -51.256981 -28.929760 36.273376 0.494118 1.000000 0.556863
v -54.609089 -23.918966 33.128540 0.494118 1.000000 0.556863
v -57.517426 -17.706814 47.462620 0.129412 0.803922 0.160784
v -59.482281 -17.897816 40.701130 0.129412 0.803922 0.160784
v -60.093639 -16.959112 31.848919 0.243137 0.827451 0.243137
v -63.759651 -7.074790 27.719355 0.129412 0.803922 0.160784
v -58.761059 -7.945135 18.020086 0.164706 0.905882 0.098039
v -19.758396 -58.546410 65.147476 0.482353 0.682353 0.611765
v -22.356482 -64.033737 56.603779 0.156863 0.501961 0.549020
v -28.369720 -58.804291 64.911110 0.156863 0.501961 0.549020
v -36.196495 -56.189808 60.221058 0.325490 0.784314 0.325490
v -35.371990 -52.052441 51.703846 0.325490 0.784314 0.325490
v -28.864094 -38.006927 53.670258 0.243137 0.827451 0.243137
v -35.861122 -43.135262 53.376831 0.325490 0.784314 0.325490
v -33.738789 -47.803032 42.454247 0.572549 0.952941 0.619608
v -36.043694 -44.734028 38.939354 0.572549 0.952941 0.619608
v -39.632816 -42.958759 40.540977 0.572549 0.952941 0.619608
v -2.891734 -9.105816 50.331223 0.325490 0.807843 0.192157
v -10.171451 -18.750290 44.218300 0.325490 0.807843 0.192157
v -4.240405 -22.017818 51.562767 0.325490 0.807843 0.192157
v -2.985659 -28.900019 51.696754 0.129412 0.803922 0.160784
v -7.468975 -39.342739 54.381073 0.129412 0.803922 0.160784
v -3.569915 -29.796774 73.449982 0.129412 0.803922 0.160784
v -3.067798 -42.729309 63.769703 0.129412 0.803922 0.160784
v -14.552668 -43.836559 63.599815 0.313725 0.447059 0.239216
v -8.445531 -51.949249 71.027649 0.313725 0.447059 0.239216
v -15.513896 -55.066101 63.485291 0.482353 0.682353 0.611765
v -20.202232 35.377476 36.030281 0.176471 0.172549 0.113725
v -21.883034 35.875343 45.067352 0.247059 0.243137 0.176471
v -14.365320 31.559418 51.940674 0.141176 0.113725 0.090196
v -21.297268 13.089478 53.509926 0.545098 0.619608 0.545098
v -17.383854 20.859217 60.507927 0.172549 0.196078 0.101961
v -7.010943 24.954004 62.201836 0.172549 0.196078 0.101961
v -3.360611 13.011156 62.026234 0.172549 0.196078 0.101961
v -5.131795 1.385667 56.853088 0.447059 0.466667 0.368627
v -7.263312 1.880948 48.243767 0.325490 0.807843 0.192157
v -3.034968 24.232052 -5.105104 1.000000 0.960784 0.949020
v 0.507845 14.170456 1.589204 1.000000 0.960784 0.949020
v 0.940599 29.131428 -0.298031 1.000000 0.960784 0.949020
v -0.745716 31.381084 11.537233 1.000000 0.960784 0.949020
v -1.910134 27.500122 18.881998 0.533333 0.419608 0.411765
v -11.614563 41.573765 17.224312 0.329412 0.188235 0.192157
v -11.174200 31.766094 23.266525 0.552941 0.231373 0.329412
v -6.324481 23.428776 30.326956 0.698039 0.517647 0.478431
v -10.071125 15.224231 35.638481 0.639216 0.603922 0.482353
v -8.130699 8.931917 41.725121 0.639216 0.603922 0.482353
v -39.651115 25.156628 -8.558603 0.192157 0.176471 0.121569
v -33.179161 20.625000 -13.794559 0.258824 0.129412 0.137255
v -39.539722 28.378016 -17.802212 0.360784 0.298039 0.290196
v -24.897203 33.032532 -11.917997 0.313725 0.266667 0.247059
v -20.368338 35.871727 -21.327112 0.313725 0.266667 0.247059
v -23.175619 59.082245 -15.823616 0.482353 0.431373 0.447059
v -14.887579 48.658119 -23.278383 0.176471 0.172549 0.113725
v -10.273109 38.889854 -22.902342 0.176471 0.172549 0.113725
v -1.247162 35.889549 -26.604864 0.070588 0.176471 0.070588
v -6.334261 30.333210 -13.875836 0.180392 0.121569 0.070588
v -50.528412 8.107416 9.274135 0.705882 0.839216 0.654902
v -54.989464 15.041006 7.001814 0.317647 0.341176 0.243137
v -47.699821 18.721529 7.911606 0.317647 0.341176 0.243137
v -43.544479 27.875141 13.869246 0.701961 0.756863 0.682353
v -55.205750 27.100159 5.233243 0.247059 0.243137 0.176471
v -41.467365 23.959265 4.892767 0.247059 0.243137 0.176471
v -36.374805 27.796331 2.200942 0.662745 0.415686 0.466667
v -36.309399 30.824596 -2.214503 0.662745 0.415686 0.466667
v -29.552393 26.500336 0.061615 0.552941 0.231373 0.329412
v -67.210251 -19.559668 0.412026 0.560784 0.196078 0.011765
v -60.223267 -16.166519 -6.088452 0.501961 0.196078 0.027451
v -61.237446 -15.910810 4.854188 0.560784 0.196078 0.011765
v -50.992783 -13.014646 4.757019 0.764706 0.203922 0.039216
v -44.406059 -19.150585 -3.683039 0.764706 0.203922 0.039216
v -35.375984 -22.706560 8.673256 0.313725 0.447059 0.239216
v -38.001263 -20.112391 1.576777 0.635294 0.458824 0.325490
v -38.261402 -16.181076 -5.054610 0.635294 0.458824 0.325490
v -41.530544 -4.707404 0.111821 0.447059 0.447059 0.313725
v -34.235809 13.472664 3.208200 0.639216 0.509804 0.415686
v -59.029381 -44.395760 39.456142 1.000000 1.000000 0.886275
v -60.591972 -44.669979 29.635061 1.000000 1.000000 0.886275
v -56.241707 -45.991993 23.330137 0.470588 0.294118 0.243137
v -51.071178 -34.555630 22.869678 0.737255 0.647059 0.262745
v -47.394108 -41.142002 22.231756 0.737255 0.647059 0.262745
v -58.565929 -39.683357 17.039141 0.470588 0.294118 0.243137
v -62.569416 -32.539711 12.219462 0.560784 0.196078 0.011765
v -65.781723 -25.828262 8.006625 0.560784 0.196078 0.011765
v -59.754494 -30.970795 -2.401652 0.501961 0.196078 0.027451
v -41.378120 -82.947342 7.303617 0.266667 0.309804 0.631373
v -45.211845 -79.920700 -0.328763 0.156863 0.435294 0.529412
v -50.071186 -74.485939 6.287326 0.262745 0.329412 0.380392
v -42.979679 -65.320946 5.210450 0.156863 0.435294 0.529412
v -53.224804 -64.030869 4.440337 0.639216 0.623529 0.568627
v -40.613968 -57.395607 15.339543 0.223529 0.258824 0.192157
v -50.483253 -57.361992 10.893519 0.639216 0.623529 0.568627
v -58.342766 -53.314434 5.453751 0.858824 1.000000 0.882353
v -53.017883 -44.022560 0.572908 0.298039 0.227451 0.215686
v -50.511181 -37.256943 -1.264258 0.294118 0.211765 0.129412
v -23.168629 -64.468613 48.023193 0.466667 0.800000 0.776471
v -22.745953 -63.055542 35.892372 0.466667 0.800000 0.776471
v -27.684582 -68.761658 25.642178 0.447059 0.666667 0.827451
v -30.770514 -67.146561 44.584911 0.486275 0.517647 0.478431
v -29.528519 -74.689491 31.629009 0.447059 0.666667 0.827451
v -31.471752 -78.938873 17.808096 0.447059 0.666667 0.827451
v -36.253021 -89.119484 16.279224 0.172549 0.215686 0.870588
v -36.797756 -82.164429 9.057516 0.172549 0.215686 0.870588
v -28.367680 -86.619263 2.093091 0.090196 0.164706 0.921569
v -18.351559 -61.599018 15.494367 0.419608 0.419608 0.600000
v -20.377663 -70.580360 5.843881 0.247059 0.019608 1.000000
v -15.121877 -66.078751 8.901869 0.090196 0.164706 0.921569
v -2.847912 -71.048050 9.854732 0.247059 0.019608 1.000000
v -2.000021 -84.283539 10.655375 0.247059 0.019608 1.000000
v -3.906930 -82.326889 33.566399 0.090196 0.164706 0.921569
v -5.782537 -87.443314 20.416428 0.090196 0.164706 0.921569
v -3.873286 -98.829819 9.807009 0.090196 0.164706 0.921569
v -12.430989 -104.254822 4.054188 0.090196 0.164706 0.921569
v -23.330311 -97.674438 2.483657 0.090196 0.164706 0.921569
v -14.597984 -23.026506 39.680321 0.639216 0.623529 0.568627
v -11.895931 -28.806055 41.170891 0.815686 0.686275 0.768627
v -1.861681 -34.195763 42.623474 0.603922 0.450980 0.478431
v -9.101854 -48.005501 42.181080 0.537255 0.498039 0.549020
v -13.073865 -45.179417 35.703606 0.258824 0.129412 0.137255
v -7.851655 -44.932152 33.218586 0.274510 0.054902 0.211765
v -7.387731 -54.049610 25.247738 0.274510 0.054902 0.211765
v -4.839426 -64.391197 15.620817 0.349020 0.254902 0.380392
v -6.519677 -60.933723 8.585919 0.349020 0.254902 0.380392
v -3.128059 -4.015316 -2.328516 1.000000 0.960784 0.949020
v -0.167045 -0.521663 4.988777 1.000000 0.960784 0.949020
v -1.969508 -8.998462 8.421469 1.000000 0.960784 0.949020
v -2.889771 -20.530447 12.026857 1.000000 0.960784 0.949020
v 1.543444 -9.095488 26.502832 1.000000 0.960784 0.949020
v 0.365423 -22.126131 19.378092 1.000000 0.960784 0.949020
v -0.533881 -32.880093 12.575823 1.000000 0.960784 0.949020
v 0.221270 -44.318569 11.683127 1.000000 0.960784 0.949020
v -3.697380 -49.399464 10.289060 0.647059 0.282353 0.462745
v -27.208704 15.994229 -16.311661 0.258824 0.129412 0.137255
v -29.799683 4.530460 -17.424332 0.384314 0.243137 0.266667
v -27.817438 -2.820193 -21.686035 1.000000 0.960784 0.949020
v -19.194193 -1.094961 -13.435205 1.000000 0.960784 0.949020
v -29.326569 -9.463969 -20.374710 1.000000 0.960784 0.949020
v -24.771841 -5.738078 -25.992254 1.000000 0.960784 0.949020
v -18.948385 -5.618855 -29.919117 0.192157 0.176471 0.121569
v -18.191883 -14.379405 -32.227074 0.192157 0.176471 0.121569
v -33.056023 -16.062632 -33.748924 0.231373 0.258824 0.211765
v -27.885166 -25.163952 -30.690054 0.231373 0.258824 0.211765
v -51.840309 -15.224585 -13.960548 0.141176 0.113725 0.090196
v -54.695068 -10.955049 -19.062572 0.141176 0.113725 0.090196
v -61.146210 -8.484108 -28.118011 0.035294 0.058824 0.000000
v -52.201485 11.154984 -23.503002 0.231373 0.176471 0.105882
v -53.356567 0.906246 -35.322742 0.141176 0.113725 0.090196
v -49.415070 -9.872182 -33.745560 0.278431 0.262745 0.227451
v -44.791168 -11.750076 -43.837982 0.192157 0.215686 0.141176
v -37.423904 -10.251005 -34.895111 0.266667 0.274510 0.215686
v -40.098267 -18.887627 -25.075596 0.266667 0.274510 0.215686
v -44.808723 -74.506142 -5.396483 0.156863 0.435294 0.529412
v -41.485252 -68.445999 -8.469724 0.274510 0.521569 0.654902
v -42.403790 -59.908764 -10.789987 0.274510 0.521569 0.654902
v -58.758827 -54.214531 -16.929615 0.392157 0.384314 0.333333
v -47.552200 -51.740753 -16.413527 0.274510 0.521569 0.654902
v -43.113697 -48.758324 -16.337559 0.376471 0.517647 0.494118
v -43.215267 -41.076878 -23.038034 0.376471 0.517647 0.494118
v -42.130688 -31.022312 -23.927603 0.266667 0.274510 0.215686
v -34.000477 -32.826096 -28.645554 0.447059 0.458824 0.450980
v -16.899473 -73.067230 3.913857 0.247059 0.019608 1.000000
v -2.433064 -68.020676 2.649284 0.247059 0.019608 1.000000
v -12.904541 -69.177299 -5.421283 0.090196 0.164706 0.921569
v -10.318533 -85.155113 -15.384087 0.090196 0.164706 0.921569
v -17.310085 -73.675598 -12.941795 0.090196 0.164706 0.921569
v -22.400169 -58.309376 -8.739367 0.090196 0.164706 0.921569
v -30.240881 -52.470642 -9.449705 0.447059 0.458824 0.450980
v -26.081852 -41.143211 -17.435669 0.447059 0.458824 0.450980
v -34.392357 -31.928522 -18.832968 0.447059 0.458824 0.450980
v 0.372300 -20.403206 -11.259531 1.000000 0.960784 0.949020
v -11.742295 -23.691425 -12.272970 1.000000 0.960784 0.949020
v -27.813496 -30.536366 -8.931523 1.000000 0.960784 0.949020
v -24.986671 -38.621986 1.630296 1.000000 0.960784 0.949020
v -32.218212 -37.670296 -4.181245 1.000000 0.960784 0.949020
v -37.568722 -34.221012 -11.301668 0.247059 0.203922 0.176471
v -25.898403 -26.379757 -14.304029 0.349020 0.254902 0.380392
v -26.442972 -31.919292 -23.262615 0.239216 0.243137 0.266667
v -42.346542 -15.882594 60.408092 0.000000 0.600000 0.070588
v -42.283974 -8.360422 62.509285 0.000000 0.600000 0.070588
v -39.185070 -11.239990 65.446594 0.000000 0.600000 0.070588
v -38.239983 -24.056158 56.746338 0.129412 0.803922 0.160784
v -39.374649 -19.508825 53.943829 0.129412 0.803922 0.160784
v -33.942543 -24.336058 61.261829 0.129412 0.803922 0.160784
v -32.496056 -26.020258 54.967690 0.129412 0.803922 0.160784
v -37.007179 -17.416071 69.072556 0.000000 0.600000 0.070588
v -32.328281 -23.870005 66.183464 0.129412 0.803922 0.160784
v -34.138908 -10.642560 64.307465 0.000000 0.600000 0.070588
v -24.458487 48.790512 24.652197 0.207843 0.192157 0.180392
v -22.796513 51.570995 29.219345 0.207843 0.192157 0.180392
v -26.503378 45.733631 31.161804 0.207843 0.192157 0.180392
v -24.923107 43.339790 20.336737 0.537255 0.498039 0.549020
v -24.805063 49.763573 19.902952 0.207843 0.192157 0.180392
v -25.160084 37.728737 23.383747 0.537255 0.498039 0.549020
v -27.075369 40.146801 20.173393 0.537255 0.498039 0.549020
v -57.854698 -3.840392 5.368073 0.560784 0.623529 0.180392
v -54.963692 -2.385750 4.407087 0.560784 0.623529 0.180392
v -59.963646 1.884832 5.416733 0.560784 0.623529 0.180392
v -61.582287 -4.346346 8.373263 0.560784 0.623529 0.180392
v -59.681927 -8.356715 6.442677 0.549020 0.662745 0.207843
v -52.221161 -52.071667 46.329895 0.513725 0.431373 0.427451
v -51.792534 -51.686199 39.921150 0.513725 0.431373 0.427451
v -53.556679 -50.022682 45.367413 0.513725 0.431373 0.427451
v -46.880013 -49.194530 45.202923 0.513725 0.431373 0.427451
v -49.209858 -53.232990 47.335629 0.513725 0.431373 0.427451
v -12.985301 -70.584389 57.619671 0.686275 1.000000 0.960784
v -13.528631 -69.865166 50.264244 0.686275 1.000000 0.960784
v -16.780554 -68.576485 53.632195 0.156863 0.501961 0.549020
v -13.104530 -65.031273 64.390434 0.717647 1.000000 0.921569
v -8.779085 -67.348907 61.533031 0.717647 1.000000 0.921569
v -9.815547 -4.471651 43.896141 0.549020 0.662745 0.207843
v -10.169477 -6.881103 42.970936 0.549020 0.662745 0.207843
v -11.137221 -10.435213 44.324642 0.549020 0.662745 0.207843
v -2.721656 12.831743 -7.153777 1.000000 0.960784 0.949020
v -2.679082 4.655299 -8.127153 1.000000 0.960784 0.949020
v -2.031234 1.863360 -6.162618 1.000000 0.960784 0.949020
v -34.495014 21.981777 -5.361518 0.552941 0.231373 0.329412
v -39.141445 17.426037 -8.142287 0.333333 0.176471 0.164706
v -29.644785 20.248234 -7.869064 0.552941 0.231373 0.329412
v -49.935829 -28.285435 -6.004817 0.294118 0.211765 0.129412
v -49.461929 -27.275593 -8.141169 0.298039 0.227451 0.215686
v -50.760300 -23.791342 -7.937840 0.294118 0.211765 0.129412
v -30.902430 -90.423386 -4.714588 0.090196 0.164706 0.921569
v -33.409615 -92.769928 -7.582959 0.090196 0.164706 0.921569
v -38.741718 -90.246910 -4.438012 0.090196 0.164706 0.921569
v -17.576551 -59.416359 6.572251 0.349020 0.254902 0.380392
v -22.475607 -59.852276 5.301007 0.266667 0.309804 0.631373
v -23.758835 -63.561195 5.650092 0.266667 0.309804 0.631373
v -57.743286 -5.473510 36.268040 0.129412 0.803922 0.160784
v -55.186554 1.415284 37.602196 0.325490 0.807843 0.192157
v -56.565369 -0.938109 40.347099 0.533333 0.650980 0.596078
v -34.275707 7.157887 59.060955 0.392157 0.384314 0.333333
v -38.742485 13.778015 56.300346 0.207843 0.192157 0.180392
v -33.557289 14.913099 54.130501 0.207843 0.192157 0.180392
v -31.652185 19.743704 48.823051 0.207843 0.192157 0.180392
v -30.970358 13.437350 48.610672 0.207843 0.192157 0.180392
v -45.476315 -31.052679 46.742237 0.243137 0.827451 0.243137
v -45.518280 -29.078518 43.266838 0.243137 0.827451 0.243137
v -49.748932 -27.448242 49.971558 0.129412 0.803922 0.160784
v -46.888176 -12.263638 35.875031 0.129412 0.803922 0.160784
v -43.760571 -12.185476 31.352713 0.164706 0.905882 0.098039
v -49.792137 -9.594165 32.622070 0.129412 0.803922 0.160784
v -51.746704 -7.431342 29.957129 0.129412 0.803922 0.160784
v -20.671350 -38.474506 64.651466 0.243137 0.827451 0.243137
v -22.004873 -42.137405 58.795311 0.243137 0.827451 0.243137
v -22.350117 -38.130936 61.218830 0.243137 0.827451 0.243137
v -47.990864 -30.625103 56.750694 0.129412 0.803922 0.160784
v -43.858261 -35.464066 52.775726 0.243137 0.827451 0.243137
v -44.280460 -32.920166 49.059200 0.243137 0.827451 0.243137
v -39.467064 -32.859840 43.453514 0.243137 0.827451 0.243137
v -9.433558 -8.445448 71.169601 0.325490 0.807843 0.192157
v -4.606777 -12.599619 68.771973 0.325490 0.807843 0.192157
v -7.939386 -12.326909 73.336777 0.325490 0.807843 0.192157
v -18.804810 -30.344204 74.542641 0.129412 0.803922 0.160784
v -13.912317 -31.788019 75.719337 0.129412 0.803922 0.160784
v -18.548840 -35.792885 72.607216 0.129412 0.803922 0.160784
v -20.215595 -40.449532 68.132248 0.243137 0.827451 0.243137
v -27.105984 14.455133 43.694084 0.247059 0.243137 0.176471
v -28.393116 11.664908 48.117336 0.392157 0.384314 0.333333
v -18.092297 -8.391758 67.493286 0.325490 0.807843 0.192157
v -19.308004 -1.749689 71.283821 0.545098 0.619608 0.545098
v -14.802938 -5.466133 72.362877 0.545098 0.619608 0.545098
v -10.482386 -4.426699 68.643784 0.545098 0.619608 0.545098
v -12.013529 47.692085 0.821545 0.368627 0.090196 0.192157
v -9.352195 46.444542 2.213843 0.368627 0.090196 0.192157
v -11.023306 48.237057 4.689130 0.368627 0.090196 0.192157
v -3.321010 39.577705 45.784069 0.400000 0.345098 0.329412
v -5.219982 35.573700 39.223633 0.400000 0.345098 0.329412
v -4.690269 31.005072 44.646767 0.400000 0.345098 0.329412
v -3.085559 24.490692 44.738739 0.400000 0.345098 0.329412
v -4.231126 27.348225 50.237305 0.400000 0.345098 0.329412
v -44.842361 48.728886 -7.689645 0.309804 0.313725 0.258824
v -39.470467 48.447506 -13.224820 0.309804 0.313725 0.258824
v -40.035572 54.814903 -8.383975 0.309804 0.313725 0.258824
v -5.438404 58.529552 0.830288 0.141176 0.113725 0.090196
v -4.511079 58.997608 -4.505818 0.125490 0.058824 0.003922
v -7.525558 51.014385 -1.840597 0.125490 0.058824 0.003922
v -10.498766 46.973221 -4.246987 0.125490 0.058824 0.003922
v -37.295860 18.857075 24.524464 0.392157 0.384314 0.333333
v -40.539261 17.804132 23.106075 0.392157 0.384314 0.333333
v -38.842087 22.120007 22.518272 0.392157 0.384314 0.333333
v -40.421261 47.743061 1.458983 0.494118 0.498039 0.443137
v -39.765495 40.975590 0.346752 0.494118 0.498039 0.443137
v -40.944576 43.961903 -3.769413 0.494118 0.498039 0.443137
v -44.455982 41.187420 -8.007074 0.309804 0.313725 0.258824
v -38.461617 -31.943842 14.126900 0.956863 0.086275 0.129412
v -41.061516 -28.587605 13.130733 0.956863 0.086275 0.129412
v -34.972809 -28.592508 14.571259 0.956863 0.086275 0.129412
v -36.507019 8.677730 9.799437 0.705882 0.584314 0.537255
v -35.187279 5.090110 11.349119 0.639216 0.509804 0.415686
v -33.919472 12.037460 10.426589 0.705882 0.584314 0.537255
v -32.399151 14.855814 10.749240 0.705882 0.584314 0.537255
v -34.357735 18.269997 9.313114 0.705882 0.584314 0.537255
v -61.317833 -26.651438 31.014679 0.717647 0.776471 0.564706
v -65.416420 -31.324635 31.258556 1.000000 1.000000 0.886275
v -65.407410 -28.514362 26.865866 0.717647 0.776471 0.564706
v -35.628296 -31.244244 19.045509 0.662745 0.211765 0.137255
v -37.601871 -34.266586 16.181480 0.662745 0.211765 0.137255
v -36.913509 -33.809807 14.678366 0.956863 0.086275 0.129412
v -40.581837 -33.751251 9.316363 0.956863 0.086275 0.129412
v -48.327808 -68.412552 24.176411 0.223529 0.258824 0.192157
v -45.550606 -68.516983 18.589155 0.223529 0.258824 0.192157
v -43.287086 -64.304886 23.000181 0.223529 0.258824 0.192157
v -59.275734 -54.000916 14.192189 0.619608 0.400000 0.282353
v -53.005615 -51.076588 12.760621 0.619608 0.400000 0.282353
v -59.597412 -49.168358 10.741781 0.619608 0.400000 0.282353
v -59.837696 -45.435040 8.945017 0.619608 0.400000 0.282353
v -65.335922 -45.479805 12.272278 0.619608 0.400000 0.282353
v -28.315613 -52.692585 44.212040 0.662745 0.741176 0.800000
v -27.591679 -56.359020 43.742744 0.662745 0.741176 0.800000
v -28.617615 -54.697357 40.540092 0.662745 0.741176 0.800000
v -42.432915 -68.302689 32.809990 0.231373 0.258824 0.211765
v -42.667179 -73.072182 35.482441 0.231373 0.258824 0.211765
v -47.685219 -70.971794 30.611744 0.231373 0.258824 0.211765
v -46.967255 -73.932541 24.955490 0.231373 0.258824 0.211765
v -14.023453 -66.765884 30.202000 0.756863 0.349020 0.690196
v -17.747189 -70.772644 24.608677 0.419608 0.419608 0.600000
v -17.124390 -70.964828 28.335709 0.419608 0.419608 0.600000
v -24.587835 -83.243141 20.557974 0.172549 0.215686 0.870588
v -18.875057 -88.061111 21.264154 0.027451 0.231373 1.000000
v -21.464487 -85.576027 16.910992 0.027451 0.231373 1.000000
v -21.740221 -88.825394 15.595505 0.090196 0.164706 0.921569
v -24.691172 -82.560509 14.758997 0.172549 0.215686 0.870588
v -16.011852 -41.579792 51.797249 0.639216 0.623529 0.568627
v -16.820599 -40.682159 47.598839 0.639216 0.623529 0.568627
v -15.495860 -43.827511 50.588120 0.639216 0.623529 0.568627
v -2.910843 -71.428696 34.425468 0.756863 0.349020 0.690196
v -2.357795 -64.958572 34.852291 0.203922 0.176471 0.156863
v -6.524992 -70.764160 30.630005 0.756863 0.349020 0.690196
v -9.664014 -68.596008 28.082355 0.756863 0.349020 0.690196
v -1.051396 18.176392 22.242180 1.000000 0.960784 0.949020
v 1.204088 11.454230 19.421919 1.000000 0.960784 0.949020
v 0.563158 11.462877 24.504210 1.000000 0.960784 0.949020
v -3.026615 -28.208996 28.745453 0.647059 0.282353 0.462745
v -5.407273 -28.454884 28.705236 1.000000 0.960784 0.949020
v -4.801290 -33.589943 27.627319 0.647059 0.282353 0.462745
v -5.193356 -38.473778 25.897272 0.647059 0.282353 0.462745
v -1.439051 -37.928467 27.783173 0.274510 0.054902 0.211765
v -17.183924 25.214458 -25.312981 0.313725 0.266667 0.247059
v -18.684574 19.532873 -24.309326 0.313725 0.266667 0.247059
v -13.402397 19.949078 -24.789492 0.176471 0.172549 0.113725
v -28.234085 -21.745201 -11.730729 1.000000 0.960784 0.949020
v -32.252136 -20.268112 -15.298403 1.000000 0.960784 0.949020
v -37.029884 -23.508228 -14.422781 1.000000 0.960784 0.949020
v -37.419079 -23.273474 -17.120022 0.247059 0.203922 0.176471
v -38.709770 -27.208599 -14.187246 1.000000 0.960784 0.949020
v -48.989143 -5.998451 -4.675594 0.501961 0.196078 0.027451
v -58.487358 3.356740 -4.545728 0.501961 0.196078 0.027451
v -50.580097 0.995169 -6.151046 0.501961 0.196078 0.027451
v -28.873241 13.138037 -31.652912 0.141176 0.113725 0.090196
v -31.013666 19.095924 -37.827339 0.141176 0.113725 0.090196
v -24.312098 13.039572 -41.079830 0.141176 0.113725 0.090196
v -27.661533 7.334523 -45.092152 0.141176 0.113725 0.090196
v -20.639557 6.066304 -40.043701 0.141176 0.113725 0.090196
v -56.154083 -62.687702 -2.114869 0.858824 1.000000 0.882353
v -55.015465 -63.093334 -4.607743 0.858824 1.000000 0.882353
v -56.270802 -57.183357 -5.561780 0.858824 1.000000 0.882353
v -56.090996 -24.972513 -23.579138 0.278431 0.262745 0.227451
v -54.557568 -30.425358 -23.002281 0.278431 0.262745 0.227451
v -56.716713 -26.435200 -27.876928 0.278431 0.262745 0.227451
v -57.341270 -27.287262 -32.801441 0.278431 0.262745 0.227451
v -56.868908 -20.273842 -31.502075 0.278431 0.262745 0.227451
v -11.199514 -88.246460 4.769625 0.247059 0.019608 1.000000
v -10.820987 -86.252785 2.356669 0.247059 0.019608 1.000000
v -10.063930 -90.282372 -0.241916 0.247059 0.019608 1.000000
v -34.780865 -73.072884 -18.680737 0.172549 0.215686 0.870588
v -27.482731 -74.210876 -14.588678 0.172549 0.215686 0.870588
v -34.806435 -66.552017 -18.598658 0.172549 0.215686 0.870588
v -33.763508 -61.215588 -18.186832 0.262745 0.329412 0.380392
v -41.429802 -59.439476 -22.987736 0.262745 0.329412 0.380392
v -5.708392 -26.702023 6.683223 1.000000 0.960784 0.949020
v -6.598017 -28.112402 1.374583 1.000000 0.960784 0.949020
v -7.841780 -31.370129 3.817034 1.000000 0.960784 0.949020
v -15.159505 -51.297707 -10.281647 0.266667 0.309804 0.631373
v -16.740211 -44.818703 -12.270094 0.239216 0.243137 0.266667
v -22.077637 -48.742786 -9.669251 0.266667 0.309804 0.631373
v -25.323076 -45.708672 -8.606678 0.266667 0.309804 0.631373
v -24.317101 -52.297688 -7.351760 0.266667 0.309804 0.631373
v -45.469170 -14.321698 46.148026 0.129412 0.803922 0.160784
v -51.635887 -8.913936 50.867229 0.266667 0.313725 0.231373
v -48.036869 -9.815022 52.473457 0.533333 0.552941 0.529412
v -34.167114 -6.770214 47.511593 0.533333 0.552941 0.529412
v -38.026066 -5.583372 44.893097 0.533333 0.552941 0.529412
v -32.863380 -5.212089 45.643303 0.533333 0.552941 0.529412
v -31.633770 -2.583751 49.088535 0.533333 0.552941 0.529412
v -27.936316 -4.529559 47.051933 0.482353 0.682353 0.611765
v -42.213535 -24.051199 54.834045 0.129412 0.803922 0.160784
v -42.635147 -20.980623 52.396069 0.129412 0.803922 0.160784
v -38.973042 -23.680777 47.783028 0.129412 0.803922 0.160784
v -36.468239 -15.887276 47.504742 0.129412 0.803922 0.160784
v -33.775814 -18.253683 42.788666 0.129412 0.803922 0.160784
v -37.868935 -15.773709 43.746029 0.129412 0.803922 0.160784
v -41.089165 -16.137585 40.569695 0.129412 0.803922 0.160784
v -22.013264 -30.547598 57.722557 0.129412 0.803922 0.160784
v -26.510559 -28.948441 64.213127 0.129412 0.803922 0.160784
v -25.930294 -29.022314 56.439995 0.129412 0.803922 0.160784
v -34.345318 -28.258747 50.478760 0.164706 0.905882 0.098039
v -34.599785 -29.232754 55.524254 0.129412 0.803922 0.160784
v -38.773468 -27.302820 55.441414 0.129412 0.803922 0.160784
v -42.148903 -24.105032 61.894714 0.129412 0.803922 0.160784
v -19.858532 -15.579514 64.368835 0.325490 0.807843 0.192157
v -18.384817 -17.001644 69.339317 0.325490 0.807843 0.192157
v -22.474922 -16.952105 71.631645 0.325490 0.807843 0.192157
v -22.472767 -26.694469 56.817963 0.129412 0.803922 0.160784
v -20.042568 -26.753021 60.534279 0.129412 0.803922 0.160784
v -19.703325 -29.336477 55.943810 0.164706 0.905882 0.098039
v -18.471689 -31.651112 58.534966 0.129412 0.803922 0.160784
v -24.912022 -2.644012 48.210014 0.482353 0.682353 0.611765
v -25.813604 -6.880876 47.138107 0.482353 0.682353 0.611765
v -25.177525 -12.636900 60.479919 0.000000 0.600000 0.070588
v -23.903791 -10.902086 55.941368 0.482353 0.682353 0.611765
v -21.769062 -13.712970 60.266407 0.000000 0.600000 0.070588
v -19.558666 -13.064775 60.944092 0.325490 0.807843 0.192157
v -10.662284 68.212166 13.989479 0.141176 0.113725 0.090196
v -5.434505 64.911362 16.208447 0.141176 0.113725 0.090196
v -10.651448 64.729630 20.302753 0.141176 0.113725 0.090196
v -16.182949 52.184273 34.235729 0.176471 0.172549 0.113725
v -12.220190 57.180183 32.591564 0.207843 0.192157 0.180392
v -12.191670 51.405651 38.919121 0.176471 0.172549 0.113725
v -6.970657 51.106323 43.678787 0.180392 0.121569 0.070588
v -13.360060 46.480965 44.012337 0.176471 0.172549 0.113725
v -31.427441 50.819355 7.939774 0.603922 0.450980 0.478431
v -28.805445 50.131592 3.019974 0.415686 0.305882 0.349020
v -26.813868 49.291466 6.462524 0.603922 0.450980 0.478431
v -24.284851 62.222534 14.483408 0.141176 0.113725 0.090196
v -23.166340 60.649940 7.447133 0.325490 0.278431 0.278431
v -18.202291 65.161438 10.294792 0.141176 0.113725 0.090196
v -11.359007 67.918457 7.457186 0.141176 0.113725 0.090196
v -44.098289 34.858246 29.472904 0.533333 0.552941 0.529412
v -44.376724 34.697575 24.172916 0.533333 0.552941 0.529412
v -43.232506 39.275124 26.795843 0.792157 0.823529 0.701961
v -34.331795 51.389660 19.855316 0.537255 0.498039 0.549020
v -39.159023 47.836823 18.473576 0.537255 0.498039 0.549020
v -36.068020 53.643921 14.957190 0.537255 0.498039 0.549020
v -38.210415 52.602917 10.081061 0.603922 0.450980 0.478431
v -40.802029 -17.698399 15.789955 0.560784 0.623529 0.180392
v -39.018360 -17.202343 18.362534 0.560784 0.623529 0.180392
v -43.327888 -13.552206 16.610081 0.560784 0.623529 0.180392
v -48.230846 0.804772 2.440752 0.666667 0.631373 0.419608
v -44.813938 -2.919739 9.661589 0.549020 0.662745 0.207843
v -44.978203 2.355971 5.116378 0.666667 0.631373 0.419608
v -41.283562 3.768564 6.570794 0.705882 0.584314 0.537255
v -44.486504 8.216386 -0.598569 0.705882 0.584314 0.537255
v -63.132607 -18.007946 22.695713 0.549020 0.662745 0.207843
v -58.686279 -21.072048 20.888721 0.717647 0.776471 0.564706
v -59.785145 -19.566284 18.163090 0.549020 0.662745 0.207843
v -50.485676 -14.486399 12.601950 0.560784 0.623529 0.180392
v -50.059921 -19.723558 12.330194 0.560784 0.623529 0.180392
v -44.319771 -18.241062 12.354269 0.560784 0.623529 0.180392
v -40.874252 -23.902601 15.806915 0.560784 0.623529 0.180392
v -47.379005 -65.215469 35.348698 0.231373 0.258824 0.211765
v -44.837353 -62.275707 30.331726 0.231373 0.258824 0.211765
v -51.070412 -63.695789 31.280293 0.513725 0.431373 0.427451
v -51.553040 -52.904663 30.659042 0.513725 0.431373 0.427451
v -51.539185 -55.389843 28.397226 0.513725 0.431373 0.427451
v -53.236084 -53.620068 26.880289 0.513725 0.431373 0.427451
v -55.798866 -54.200085 23.397079 0.513725 0.431373 0.427451
v -58.859325 -54.431805 26.646503 0.470588 0.294118 0.243137
v -36.049248 -49.795246 34.789520 0.713725 0.596078 0.666667
v -36.871742 -53.402496 36.124840 0.713725 0.596078 0.666667
v -40.028191 -53.750084 37.115578 0.713725 0.596078 0.666667
v -50.944420 -59.782249 42.940216 0.513725 0.431373 0.427451
v -47.745831 -61.591347 45.830505 0.513725 0.431373 0.427451
v -49.703255 -65.471329 41.451691 0.513725 0.431373 0.427451
v -43.936768 -66.307632 38.559948 0.231373 0.258824 0.211765
v -6.086278 -75.028320 42.645622 0.756863 0.349020 0.690196
v -12.602021 -75.043549 40.291790 0.756863 0.349020 0.690196
v -11.072222 -78.420258 43.933739 0.756863 0.349020 0.690196
v -18.128979 -71.903160 42.183193 0.290196 0.450980 0.596078
v -20.188688 -77.556641 44.311974 0.290196 0.450980 0.596078
v -22.603924 -73.561638 37.985077 0.290196 0.450980 0.596078
v -24.213860 -76.575546 31.652313 0.290196 0.450980 0.596078
v -23.678776 -69.775230 32.781445 0.290196 0.450980 0.596078
v -4.571736 -52.808727 60.874092 0.717647 1.000000 0.921569
v -4.833783 -51.944695 56.178131 0.717647 1.000000 0.921569
v -6.047067 -56.314930 56.486092 0.717647 1.000000 0.921569
v -4.366736 -68.202309 52.409584 0.615686 0.752941 0.737255
v -7.252318 -62.160423 50.769218 0.615686 0.752941 0.737255
v -3.769247 -68.317284 47.803661 0.615686 0.752941 0.737255
v -3.408781 -69.489586 43.606647 0.756863 0.349020 0.690196
v -3.398932 10.600996 36.399185 0.698039 0.517647 0.478431
v -1.822137 6.208385 32.799500 0.533333 0.545098 0.376471
v -1.698579 4.087433 37.861954 0.533333 0.545098 0.376471
v -5.749711 -13.075617 42.452721 0.815686 0.686275 0.768627
v -1.566421 -9.791855 41.057613 0.533333 0.545098 0.376471
v -2.122481 -16.084600 42.046299 0.552941 0.231373 0.329412
v -0.957751 -20.267612 37.848938 0.552941 0.231373 0.329412
v -2.474406 -22.926155 43.835152 0.552941 0.231373 0.329412
v -5.071887 22.219189 -26.068277 0.176471 0.172549 0.113725
v -8.542150 18.344992 -21.606373 0.329412 0.188235 0.192157
v -4.553894 15.601878 -21.775242 0.329412 0.188235 0.192157
v -4.507770 -8.377164 -13.482256 1.000000 0.960784 0.949020
v -5.590720 -2.396818 -16.963528 1.000000 0.960784 0.949020
v -8.669485 -13.079901 -18.798359 1.000000 0.960784 0.949020
v -14.171568 -16.604025 -18.679396 1.000000 0.960784 0.949020
v -12.366774 -20.696949 -20.364269 1.000000 0.960784 0.949020
v -39.341293 -9.278135 -7.775906 0.447059 0.447059 0.313725
v -41.399162 -9.366463 -13.320860 0.431373 0.176471 0.223529
v -40.522209 -7.204456 -9.985107 0.635294 0.458824 0.325490
v -39.551628 4.742085 -14.360187 0.447059 0.447059 0.313725
v -40.484409 -1.218708 -16.209448 0.635294 0.458824 0.325490
v -38.425022 1.766025 -19.015600 0.384314 0.243137 0.266667
v -36.612366 3.673638 -22.090281 0.141176 0.113725 0.090196
v -34.584011 2.921518 -20.706833 0.384314 0.243137 0.266667
v -59.138783 -41.345604 -3.002172 0.298039 0.227451 0.215686
v -65.216843 -40.456566 -4.474454 0.392157 0.384314 0.333333
v -58.870361 -37.795246 -6.487831 0.298039 0.227451 0.215686
v -57.964977 -24.769989 -10.858150 0.298039 0.227451 0.215686
v -64.313240 -27.799795 -9.551777 0.203922 0.176471 0.156863
v -67.016869 -22.337502 -11.812287 0.203922 0.176471 0.156863
v -67.326797 -21.557459 -17.267956 0.203922 0.176471 0.156863
v -65.545067 -16.180408 -14.264688 0.035294 0.058824 0.000000
v -14.713514 -102.076157 -8.138469 0.247059 0.019608 1.000000
v -14.247554 -99.234741 -12.703320 0.247059 0.019608 1.000000
v -18.571032 -100.890259 -16.119778 0.247059 0.019608 1.000000
v -37.754684 -89.473778 -16.833326 0.090196 0.164706 0.921569
v -29.611837 -90.068443 -17.805523 0.090196 0.164706 0.921569
v -36.816093 -84.341949 -18.855423 0.090196 0.164706 0.921569
v -35.495316 -80.052620 -16.591274 0.090196 0.164706 0.921569
v -42.146484 -78.597725 -15.907372 0.266667 0.309804 0.631373
v -5.778314 -42.820183 5.249909 1.000000 0.960784 0.949020
v -8.598282 -41.487720 3.130046 1.000000 0.960784 0.949020
v -7.502815 -45.622364 2.344409 0.647059 0.282353 0.462745
v -22.245564 -59.192360 1.238370 0.266667 0.309804 0.631373
v -20.641150 -53.902599 -0.339365 0.266667 0.309804 0.631373
v -18.628023 -57.298656 0.495572 0.247059 0.019608 1.000000
v -12.433558 -54.021996 -0.432690 0.090196 0.164706 0.921569
v -9.038589 -59.099590 2.003020 0.247059 0.019608 1.000000
v -62.076790 1.968614 23.624481 0.325490 0.807843 0.192157
v -59.380169 8.714132 20.731871 0.705882 0.839216 0.654902
v -58.428406 9.110582 26.112900 0.325490 0.807843 0.192157
v -42.295689 1.079948 30.643204 0.545098 0.619608 0.545098
v -42.448708 4.134657 27.414585 0.545098 0.619608 0.545098
v -37.117821 3.456940 28.117807 0.545098 0.619608 0.545098
v -35.528282 7.780899 26.992786 0.447059 0.466667 0.368627
v -35.045235 6.711617 29.093292 0.545098 0.619608 0.545098